<svg xmlns="http://www.w3.org/2000/svg" xmlns:xlink="http://www.w3.org/1999/xlink" width="500" zoomAndPan="magnify" viewBox="0 0 375 374.999991" height="500" preserveAspectRatio="xMidYMid meet" version="1.0"><defs><g/><clipPath id="0966b785b1"><path d="M 222 242.328125 L 282.6875 242.328125 L 282.6875 308 L 222 308 Z M 222 242.328125 " clip-rule="nonzero"/></clipPath></defs><g clip-path="url(#0966b785b1)"><path fill="#ff6000" d="M 282.636719 247.617188 L 276.796875 242.34375 L 262.59375 252.203125 L 257.863281 263.308594 L 222.300781 302.683594 L 228.136719 307.957031 L 263.699219 268.582031 L 274.269531 262.75 Z M 282.636719 247.617188 " fill-opacity="1" fill-rule="nonzero"/></g><path fill="#ff6000" d="M 193.824219 350.78125 C 192.003906 350.78125 190.261719 350.113281 188.917969 348.898438 L 185.546875 345.855469 C 182.550781 343.148438 182.3125 338.503906 185.023438 335.507812 L 214.835938 302.496094 C 215.011719 302.300781 215.199219 302.117188 215.394531 301.941406 C 215.078125 301.410156 214.894531 300.800781 214.863281 300.160156 C 214.808594 299.117188 215.164062 298.121094 215.859375 297.351562 C 216.597656 296.535156 217.652344 296.070312 218.753906 296.070312 C 219.722656 296.070312 220.648438 296.425781 221.367188 297.070312 L 233.816406 308.316406 C 234.585938 309.011719 235.039062 309.96875 235.09375 311.011719 C 235.144531 312.054688 234.792969 313.050781 234.097656 313.820312 C 233.359375 314.636719 232.304688 315.101562 231.203125 315.101562 C 230.632812 315.101562 230.082031 314.980469 229.574219 314.75 C 229.421875 314.960938 229.257812 315.167969 229.082031 315.363281 L 199.265625 348.371094 C 197.882812 349.902344 195.898438 350.78125 193.824219 350.78125 Z M 218.753906 298.617188 C 218.371094 298.617188 218.007812 298.78125 217.753906 299.058594 C 217.515625 299.324219 217.390625 299.671875 217.410156 300.03125 C 217.429688 300.394531 217.585938 300.722656 217.851562 300.960938 L 218.125 301.210938 C 218.429688 301.488281 218.585938 301.890625 218.539062 302.296875 C 218.496094 302.703125 218.257812 303.066406 217.902344 303.265625 C 217.457031 303.519531 217.0625 303.835938 216.730469 304.207031 L 186.914062 337.214844 C 185.148438 339.171875 185.304688 342.195312 187.257812 343.960938 L 190.625 347.003906 C 191.5 347.792969 192.636719 348.230469 193.824219 348.230469 C 195.179688 348.230469 196.472656 347.65625 197.371094 346.660156 L 227.1875 313.652344 C 227.519531 313.28125 227.796875 312.855469 228 312.390625 C 228.167969 312.015625 228.503906 311.742188 228.902344 311.65625 C 229.300781 311.570312 229.71875 311.683594 230.023438 311.957031 L 230.300781 312.207031 C 230.546875 312.429688 230.867188 312.550781 231.199219 312.550781 C 231.585938 312.550781 231.949219 312.390625 232.203125 312.109375 C 232.441406 311.847656 232.5625 311.5 232.546875 311.140625 C 232.527344 310.777344 232.371094 310.449219 232.105469 310.207031 L 219.65625 298.960938 C 219.410156 298.742188 219.089844 298.617188 218.753906 298.617188 Z M 218.753906 298.617188 " fill-opacity="1" fill-rule="nonzero"/><g fill="#ffa559" fill-opacity="1"><g transform="translate(75.220328, 202.148911)"><g><path d="M 13.089844 -0.503906 C 12.835938 -0.503906 12.585938 -0.25 12.585938 0 C 12.585938 0.503906 12.835938 0.753906 13.089844 0.753906 L 139.191406 0.753906 C 139.691406 0.753906 139.945312 0.503906 139.945312 0 L 139.945312 -36.75 C 139.945312 -37.25 139.691406 -37.503906 139.191406 -37.503906 C 138.9375 -37.503906 138.6875 -37.25 138.6875 -36.75 C 138.6875 -16.863281 122.324219 -0.503906 102.441406 -0.503906 L 50.84375 -0.503906 L 50.84375 -86.835938 L 84.570312 -86.835938 C 93.378906 -86.835938 100.679688 -79.789062 100.679688 -70.980469 C 100.679688 -70.476562 100.929688 -70.222656 101.433594 -70.222656 C 101.6875 -70.222656 101.9375 -70.476562 101.9375 -70.980469 L 101.9375 -104.457031 C 101.9375 -104.707031 101.6875 -104.957031 101.433594 -104.957031 C 100.929688 -104.957031 100.679688 -104.707031 100.679688 -104.457031 C 100.679688 -95.394531 93.378906 -88.347656 84.570312 -88.347656 L 50.84375 -88.347656 L 50.84375 -158.570312 C 50.84375 -165.871094 46.5625 -172.164062 40.273438 -174.679688 L 102.441406 -174.679688 C 122.324219 -174.679688 138.6875 -158.320312 138.6875 -138.433594 C 138.6875 -138.183594 138.9375 -137.679688 139.191406 -137.679688 C 139.691406 -137.679688 139.945312 -138.183594 139.945312 -138.433594 C 139.945312 -138.433594 139.945312 -175.433594 139.945312 -175.433594 C 139.945312 -175.6875 139.691406 -176.191406 139.191406 -176.191406 L 33.476562 -176.191406 C 33.476562 -176.191406 33.476562 -175.9375 33.476562 -175.9375 L 13.089844 -175.9375 C 12.835938 -175.9375 12.585938 -175.6875 12.585938 -175.433594 C 12.585938 -174.929688 12.835938 -174.679688 13.089844 -174.679688 C 21.898438 -174.679688 29.195312 -167.378906 29.195312 -158.570312 L 29.195312 -16.613281 C 29.195312 -7.800781 21.898438 -0.503906 13.089844 -0.503906 Z M 13.089844 -0.503906 "/></g></g></g><g fill="#ff6000" fill-opacity="1"><g transform="translate(78.88064, 272.534503)"><g><path d="M 128.929688 -24.710938 C 105.554688 -31.628906 68.8125 -28.207031 57.023438 -3.070312 C 49.164062 13.6875 57.460938 28.230469 73.347656 35.679688 C 72.632812 38.113281 71.609375 42.105469 71.101562 45.914062 C 70.148438 52.492188 69.328125 54.238281 70.199219 54.648438 C 70.722656 54.894531 71.15625 54.882812 71.320312 54.535156 C 71.808594 53.488281 72.703125 44.320312 75.441406 36.664062 C 94.808594 45.320312 128.949219 37.90625 138.449219 17.660156 C 142.132812 9.804688 140.601562 0.355469 132.046875 -3.65625 C 114.242188 -12.007812 89.003906 -0.421875 76.558594 26.113281 C 75.492188 28.378906 74.695312 30.988281 74.0625 33.246094 C 63.976562 26.597656 61.851562 17.511719 67.910156 4.59375 C 81.335938 -24.035156 117.617188 -28.742188 131.582031 -22.191406 C 133.675781 -21.207031 134.789062 -18.132812 140.898438 -15.265625 C 143.34375 -14.117188 145.242188 -14.082031 145.976562 -15.652344 C 146.632812 -17.046875 143.539062 -19.988281 140.222656 -21.542969 C 137.257812 -22.9375 134.484375 -23.382812 133.4375 -23.875 C 129.074219 -25.921875 128.265625 -30.558594 129.019531 -34.890625 C 141.917969 -29.695312 192.28125 -29.921875 199.898438 -46.15625 C 202.925781 -52.617188 200.230469 -56.863281 193.949219 -59.808594 C 183.824219 -64.558594 172.421875 -65.21875 161.554688 -65.207031 C 156.183594 -76.457031 147.222656 -86.410156 135.699219 -91.8125 C 119.816406 -99.265625 96.984375 -98.261719 88.714844 -80.628906 C 81.511719 -65.269531 91.753906 -48.964844 110.777344 -40.039062 C 114.269531 -38.402344 118.007812 -37.289062 121.90625 -36.523438 C 123.65625 -32.082031 125.910156 -28.257812 129.09375 -25.0625 Z M 198.375 -48.363281 C 191.335938 -33.351562 152.730469 -31.863281 130.308594 -38.546875 C 135.875 -50.417969 148.492188 -56.425781 162.054688 -59.007812 C 166.285156 -48.503906 165.664062 -45.816406 166.710938 -45.324219 C 167.234375 -45.078125 167.746094 -45.265625 168.074219 -45.964844 C 168.238281 -46.3125 166.257812 -52.992188 164.292969 -59.238281 C 172.714844 -60.398438 184.9375 -61.480469 192.964844 -57.714844 C 198.550781 -55.09375 200.175781 -52.203125 198.375 -48.363281 Z M 95.054688 -82.339844 C 101.769531 -96.65625 123.199219 -95.121094 134.371094 -89.882812 C 145.191406 -84.804688 153.957031 -75.796875 159.316406 -64.976562 C 146.050781 -64.386719 129.257812 -59.910156 123.199219 -46.992188 C 122.378906 -45.246094 121.816406 -43.59375 121.253906 -41.941406 C 119.078125 -42.75 116.902344 -43.558594 114.980469 -44.457031 C 98.398438 -52.238281 87.523438 -66.28125 95.054688 -82.339844 Z M 136.351562 16.675781 C 127.511719 35.527344 94.25 43.78125 76.25 34.484375 C 76.648438 33.183594 77.304688 31.785156 78.039062 30.214844 C 87.046875 11.011719 116.945312 -7.332031 130.910156 -0.78125 C 138.242188 2.65625 139.710938 9.519531 136.351562 16.675781 Z M 136.351562 16.675781 "/></g></g></g><g fill="#242424" fill-opacity="1"><g transform="translate(252.624561, 47.219482)"><g><path d="M 3.601562 0.046875 L 4.96875 0.046875 C 6.507812 0.046875 7.777344 -1.207031 7.777344 -2.761719 C 7.777344 -4.300781 6.507812 -5.570312 4.96875 -5.570312 L 3.601562 -5.570312 C 2.808594 -5.570312 2.160156 -6.792969 2.160156 -8.285156 C 2.160156 -9.792969 2.808594 -11.015625 3.601562 -11.015625 L 4.96875 -11.015625 C 6.460938 -11.015625 7.679688 -9.792969 7.679688 -8.285156 C 7.679688 -8.269531 7.695312 -8.253906 7.730469 -8.253906 C 7.746094 -8.253906 7.761719 -8.269531 7.761719 -8.285156 L 7.761719 -11.0625 C 7.761719 -11.078125 7.746094 -11.109375 7.730469 -11.109375 C 7.695312 -11.109375 7.679688 -11.078125 7.679688 -11.0625 C 7.679688 -10.695312 7.394531 -10.410156 7.03125 -10.410156 C 6.917969 -10.410156 6.808594 -10.425781 6.714844 -10.488281 C 6.238281 -10.871094 5.617188 -11.109375 4.96875 -11.109375 L 3.601562 -11.109375 C 2.046875 -11.109375 0.792969 -9.839844 0.792969 -8.285156 C 0.792969 -6.746094 2.046875 -5.476562 3.601562 -5.476562 L 4.96875 -5.476562 C 5.761719 -5.476562 6.394531 -4.253906 6.394531 -2.761719 C 6.394531 -1.253906 5.761719 -0.03125 4.96875 -0.03125 L 3.601562 -0.03125 C 2.09375 -0.03125 0.871094 -1.253906 0.871094 -2.761719 C 0.871094 -2.777344 0.855469 -2.777344 0.855469 -2.792969 C 0.855469 -2.792969 0.839844 -2.808594 0.824219 -2.808594 C 0.808594 -2.808594 0.808594 -2.792969 0.792969 -2.792969 C 0.792969 -2.777344 0.792969 -2.777344 0.792969 -2.761719 L 0.792969 0 C 0.792969 0.03125 0.808594 0.046875 0.824219 0.046875 C 0.855469 0.046875 0.871094 0.03125 0.871094 0 C 0.871094 -0.347656 1.160156 -0.652344 1.523438 -0.652344 C 1.632812 -0.652344 1.746094 -0.617188 1.839844 -0.570312 C 1.839844 -0.570312 1.839844 -0.554688 1.839844 -0.554688 C 2.332031 -0.175781 2.9375 0.046875 3.601562 0.046875 Z M 3.601562 0.046875 "/></g></g></g><g fill="#242424" fill-opacity="1"><g transform="translate(250.537502, 68.37937)"><g><path d="M 6.363281 0.046875 C 9.441406 0.046875 11.933594 -2.445312 11.933594 -5.523438 C 11.933594 -8.601562 9.441406 -11.09375 6.363281 -11.09375 C 3.285156 -11.09375 0.792969 -8.601562 0.792969 -5.523438 C 0.792969 -2.445312 3.285156 0.046875 6.363281 0.046875 Z M 6.363281 -0.03125 C 4.046875 -0.03125 2.160156 -2.492188 2.160156 -5.523438 C 2.160156 -8.554688 4.046875 -11.015625 6.363281 -11.015625 C 8.679688 -11.015625 10.570312 -8.554688 10.570312 -5.523438 C 10.570312 -2.492188 8.679688 -0.03125 6.363281 -0.03125 Z M 6.363281 -0.03125 "/></g></g></g><g fill="#242424" fill-opacity="1"><g transform="translate(252.087299, 89.539258)"><g><path d="M 2.109375 -11.09375 L 0.824219 -11.09375 C 0.808594 -11.09375 0.792969 -11.078125 0.792969 -11.0625 C 0.792969 -11.03125 0.808594 -11.015625 0.824219 -11.015625 C 1.378906 -11.015625 1.839844 -10.554688 1.839844 -10 L 1.839844 -1.046875 C 1.839844 -0.492188 1.378906 -0.03125 0.824219 -0.03125 C 0.808594 -0.03125 0.792969 -0.015625 0.792969 0 C 0.792969 0.03125 0.808594 0.046875 0.824219 0.046875 L 4.222656 0.046875 C 4.253906 0.046875 4.269531 0.03125 4.269531 0 C 4.269531 -0.015625 4.253906 -0.03125 4.222656 -0.03125 C 3.664062 -0.03125 3.207031 -0.492188 3.207031 -1.046875 L 3.207031 -5.476562 L 5.332031 -5.476562 C 5.886719 -5.476562 6.347656 -5.03125 6.347656 -4.476562 C 6.347656 -4.445312 6.363281 -4.425781 6.394531 -4.425781 C 6.410156 -4.425781 6.425781 -4.445312 6.425781 -4.476562 L 6.425781 -6.585938 C 6.425781 -6.601562 6.410156 -6.617188 6.394531 -6.617188 C 6.363281 -6.617188 6.347656 -6.601562 6.347656 -6.585938 C 6.347656 -6.015625 5.886719 -5.570312 5.332031 -5.570312 L 3.207031 -5.570312 L 3.207031 -10 C 3.207031 -10.457031 2.9375 -10.855469 2.539062 -11.015625 L 6.460938 -11.015625 C 7.710938 -11.015625 8.746094 -9.980469 8.746094 -8.726562 C 8.746094 -8.710938 8.761719 -8.679688 8.777344 -8.679688 C 8.808594 -8.679688 8.824219 -8.710938 8.824219 -8.726562 C 8.824219 -8.726562 8.824219 -11.0625 8.824219 -11.0625 C 8.824219 -11.078125 8.808594 -11.109375 8.777344 -11.109375 L 2.109375 -11.109375 C 2.109375 -11.109375 2.109375 -11.09375 2.109375 -11.09375 Z M 2.109375 -11.09375 "/></g></g></g><g fill="#242424" fill-opacity="1"><g transform="translate(252.624561, 110.699146)"><g><path d="M 0.824219 -8.679688 C 0.855469 -8.679688 0.871094 -8.710938 0.871094 -8.726562 C 0.871094 -9.980469 1.90625 -11.015625 3.15625 -11.015625 L 3.585938 -11.015625 L 3.585938 -1.046875 C 3.585938 -0.492188 3.140625 -0.03125 2.570312 -0.03125 C 2.554688 -0.03125 2.539062 -0.015625 2.539062 0 C 2.539062 0.03125 2.554688 0.046875 2.570312 0.046875 L 5.984375 0.046875 C 6 0.046875 6.015625 0.03125 6.015625 0 C 6.015625 -0.015625 6 -0.03125 5.984375 -0.03125 C 5.410156 -0.03125 4.96875 -0.492188 4.96875 -1.046875 L 4.96875 -11.015625 L 5.394531 -11.015625 C 6.648438 -11.015625 7.679688 -9.980469 7.679688 -8.726562 C 7.679688 -8.710938 7.695312 -8.679688 7.730469 -8.679688 C 7.746094 -8.679688 7.761719 -8.710938 7.761719 -8.726562 L 7.761719 -11.0625 C 7.761719 -11.078125 7.746094 -11.09375 7.730469 -11.09375 L 0.824219 -11.09375 C 0.808594 -11.09375 0.792969 -11.078125 0.792969 -11.0625 L 0.792969 -8.726562 C 0.777344 -8.710938 0.808594 -8.679688 0.824219 -8.679688 Z M 0.824219 -8.679688 "/></g></g></g><g fill="#242424" fill-opacity="1"><g transform="translate(249.318329, 131.859034)"><g><path d="M 14.332031 -11.09375 L 12.21875 -11.09375 C 12.203125 -11.09375 12.1875 -11.078125 12.1875 -11.0625 C 12.1875 -11.03125 12.203125 -11.015625 12.21875 -11.015625 C 12.488281 -11.015625 12.695312 -10.917969 12.824219 -10.742188 C 12.964844 -10.554688 12.996094 -10.300781 12.917969 -10.015625 L 10.507812 -2.300781 L 8.300781 -9.378906 L 8.492188 -10.015625 L 8.507812 -10.015625 C 8.679688 -10.570312 9.285156 -11.015625 9.839844 -11.015625 C 9.855469 -11.015625 9.871094 -11.03125 9.871094 -11.0625 C 9.871094 -11.078125 9.855469 -11.09375 9.839844 -11.09375 L 7.730469 -11.09375 C 7.730469 -11.09375 7.730469 -11.109375 7.730469 -11.109375 C 7.695312 -11.109375 7.679688 -11.078125 7.679688 -11.0625 C 7.679688 -11.046875 7.695312 -11.03125 7.710938 -11.015625 C 7.710938 -11.015625 7.710938 -11.015625 7.730469 -11.015625 C 7.933594 -11.015625 8.09375 -10.949219 8.21875 -10.839844 C 8.441406 -10.664062 8.507812 -10.347656 8.410156 -10.03125 L 8.410156 -10.015625 L 8.21875 -9.394531 L 7.539062 -7.238281 L 6 -2.300781 L 3.601562 -10.015625 C 3.507812 -10.300781 3.539062 -10.554688 3.683594 -10.742188 C 3.808594 -10.917969 4.03125 -11.015625 4.285156 -11.015625 C 4.316406 -11.015625 4.332031 -11.03125 4.332031 -11.0625 C 4.332031 -11.078125 4.316406 -11.09375 4.285156 -11.09375 L 0.824219 -11.09375 C 0.808594 -11.09375 0.792969 -11.078125 0.792969 -11.0625 C 0.792969 -11.03125 0.808594 -11.015625 0.824219 -11.015625 C 1.398438 -11.015625 2 -10.554688 2.175781 -10 L 5.285156 0.015625 C 5.285156 0.015625 5.285156 0.015625 5.285156 0.03125 C 5.285156 0.03125 5.285156 0.03125 5.300781 0.03125 C 5.300781 0.03125 5.300781 0.03125 5.300781 0.046875 C 5.316406 0.046875 5.316406 0.046875 5.316406 0.046875 C 5.316406 0.046875 5.316406 0.046875 5.332031 0.046875 C 5.347656 0.046875 5.363281 0.03125 5.363281 0.015625 L 7.585938 -7.078125 L 9.792969 0.015625 C 9.792969 0.03125 9.792969 0.03125 9.792969 0.03125 C 9.808594 0.03125 9.808594 0.03125 9.808594 0.046875 C 9.808594 0.046875 9.808594 0.046875 9.824219 0.046875 C 9.824219 0.046875 9.824219 0.046875 9.839844 0.046875 C 9.855469 0.046875 9.871094 0.03125 9.871094 0.015625 L 10.554688 -2.140625 L 12.996094 -9.980469 C 12.996094 -9.980469 12.996094 -10 12.996094 -10 C 13.171875 -10.554688 13.773438 -11.015625 14.332031 -11.015625 C 14.363281 -11.015625 14.378906 -11.03125 14.378906 -11.0625 C 14.378906 -11.078125 14.363281 -11.09375 14.332031 -11.09375 Z M 14.332031 -11.09375 "/></g></g></g><g fill="#242424" fill-opacity="1"><g transform="translate(251.5707, 153.018923)"><g><path d="M 0.824219 -0.03125 C 0.808594 -0.03125 0.792969 -0.015625 0.792969 0 C 0.792969 0.03125 0.808594 0.046875 0.824219 0.046875 L 2.9375 0.046875 C 2.96875 0.046875 2.984375 0.03125 2.984375 0 C 2.984375 -0.015625 2.96875 -0.03125 2.9375 -0.03125 C 2.683594 -0.03125 2.476562 -0.128906 2.332031 -0.300781 C 2.191406 -0.492188 2.175781 -0.761719 2.253906 -1.03125 L 4.664062 -8.761719 L 7.0625 -1.03125 C 7.140625 -0.761719 7.125 -0.492188 6.984375 -0.300781 C 6.855469 -0.128906 6.632812 -0.03125 6.378906 -0.03125 C 6.347656 -0.03125 6.332031 -0.015625 6.332031 0 C 6.332031 0.03125 6.347656 0.046875 6.378906 0.046875 L 9.839844 0.046875 C 9.855469 0.046875 9.871094 0.03125 9.871094 0 C 9.871094 -0.015625 9.855469 -0.03125 9.839844 -0.03125 C 9.269531 -0.03125 8.664062 -0.492188 8.492188 -1.0625 L 5.378906 -11.078125 C 5.378906 -11.078125 5.363281 -11.078125 5.363281 -11.078125 C 5.363281 -11.09375 5.363281 -11.09375 5.363281 -11.09375 C 5.347656 -11.09375 5.347656 -11.09375 5.347656 -11.09375 C 5.347656 -11.09375 5.332031 -11.09375 5.332031 -11.09375 C 5.332031 -11.09375 5.332031 -11.109375 5.332031 -11.109375 C 5.332031 -11.109375 5.332031 -11.09375 5.332031 -11.09375 C 5.332031 -11.09375 5.316406 -11.09375 5.316406 -11.09375 C 5.300781 -11.09375 5.300781 -11.09375 5.300781 -11.09375 C 5.300781 -11.09375 5.300781 -11.09375 5.300781 -11.078125 C 5.300781 -11.078125 5.300781 -11.078125 5.285156 -11.078125 L 4.617188 -8.902344 L 2.175781 -1.0625 C 2 -0.492188 1.398438 -0.03125 0.824219 -0.03125 Z M 0.824219 -0.03125 "/></g></g></g><g fill="#242424" fill-opacity="1"><g transform="translate(251.5707, 174.178811)"><g><path d="M 0.824219 -0.03125 C 0.808594 -0.03125 0.792969 -0.015625 0.792969 0 C 0.792969 0.03125 0.808594 0.046875 0.824219 0.046875 L 4.222656 0.046875 C 4.253906 0.046875 4.269531 0.03125 4.269531 0 C 4.269531 -0.015625 4.253906 -0.03125 4.222656 -0.03125 C 3.664062 -0.03125 3.207031 -0.492188 3.207031 -1.046875 L 3.207031 -5.476562 L 6.015625 -5.476562 C 6.808594 -5.476562 7.457031 -4.253906 7.457031 -2.761719 L 7.457031 -1.046875 C 7.457031 -0.445312 7.949219 0.046875 8.554688 0.046875 L 9.839844 0.046875 C 9.855469 0.046875 9.886719 0.03125 9.886719 0.015625 C 9.886719 -0.015625 9.855469 -0.03125 9.839844 -0.03125 C 9.285156 -0.03125 8.824219 -0.492188 8.824219 -1.046875 L 8.824219 -2.761719 C 8.824219 -4.140625 7.824219 -5.300781 6.507812 -5.523438 C 7.824219 -5.761719 8.824219 -6.902344 8.824219 -8.285156 C 8.824219 -9.839844 7.570312 -11.09375 6.015625 -11.09375 L 0.824219 -11.09375 C 0.808594 -11.09375 0.792969 -11.078125 0.792969 -11.0625 C 0.792969 -11.03125 0.808594 -11.015625 0.824219 -11.015625 C 1.378906 -11.015625 1.839844 -10.554688 1.839844 -10 L 1.839844 -1.046875 C 1.839844 -0.492188 1.378906 -0.03125 0.824219 -0.03125 Z M 6.015625 -11.015625 C 6.808594 -11.015625 7.457031 -9.792969 7.457031 -8.285156 C 7.457031 -6.792969 6.808594 -5.570312 6.015625 -5.570312 L 3.207031 -5.570312 L 3.207031 -10 C 3.207031 -10.457031 2.9375 -10.855469 2.539062 -11.015625 Z M 6.015625 -11.015625 "/></g></g></g><g fill="#242424" fill-opacity="1"><g transform="translate(252.087299, 195.338699)"><g><path d="M 0.824219 -0.03125 C 0.808594 -0.03125 0.792969 -0.015625 0.792969 0 C 0.792969 0.03125 0.808594 0.046875 0.824219 0.046875 L 8.777344 0.046875 C 8.808594 0.046875 8.824219 0.03125 8.824219 0 L 8.824219 -2.316406 C 8.824219 -2.347656 8.808594 -2.363281 8.777344 -2.363281 C 8.761719 -2.363281 8.746094 -2.347656 8.746094 -2.316406 C 8.746094 -1.0625 7.710938 -0.03125 6.460938 -0.03125 L 3.207031 -0.03125 L 3.207031 -5.476562 L 5.332031 -5.476562 C 5.886719 -5.476562 6.347656 -5.03125 6.347656 -4.476562 C 6.347656 -4.445312 6.363281 -4.425781 6.394531 -4.425781 C 6.410156 -4.425781 6.425781 -4.445312 6.425781 -4.476562 L 6.425781 -6.585938 C 6.425781 -6.601562 6.410156 -6.617188 6.394531 -6.617188 C 6.363281 -6.617188 6.347656 -6.601562 6.347656 -6.585938 C 6.347656 -6.015625 5.886719 -5.570312 5.332031 -5.570312 L 3.207031 -5.570312 L 3.207031 -10 C 3.207031 -10.457031 2.9375 -10.855469 2.539062 -11.015625 L 6.460938 -11.015625 C 7.710938 -11.015625 8.746094 -9.980469 8.746094 -8.726562 C 8.746094 -8.710938 8.761719 -8.679688 8.777344 -8.679688 C 8.808594 -8.679688 8.824219 -8.710938 8.824219 -8.726562 C 8.824219 -8.726562 8.824219 -11.0625 8.824219 -11.0625 C 8.824219 -11.078125 8.808594 -11.109375 8.777344 -11.109375 L 2.109375 -11.109375 C 2.109375 -11.109375 2.109375 -11.09375 2.109375 -11.09375 L 0.824219 -11.09375 C 0.808594 -11.09375 0.792969 -11.078125 0.792969 -11.0625 C 0.792969 -11.03125 0.808594 -11.015625 0.824219 -11.015625 C 1.378906 -11.015625 1.839844 -10.554688 1.839844 -10 L 1.839844 -1.046875 C 1.839844 -0.492188 1.378906 -0.03125 0.824219 -0.03125 Z M 0.824219 -0.03125 "/></g></g></g><g fill="#242424" fill-opacity="1"><g transform="translate(102.511982, 226.968179)"><g><path d="M 3.601562 0.046875 L 4.96875 0.046875 C 6.507812 0.046875 7.777344 -1.207031 7.777344 -2.761719 C 7.777344 -4.300781 6.507812 -5.570312 4.96875 -5.570312 L 3.601562 -5.570312 C 2.808594 -5.570312 2.160156 -6.792969 2.160156 -8.285156 C 2.160156 -9.792969 2.808594 -11.015625 3.601562 -11.015625 L 4.96875 -11.015625 C 6.460938 -11.015625 7.679688 -9.792969 7.679688 -8.285156 C 7.679688 -8.269531 7.695312 -8.253906 7.730469 -8.253906 C 7.746094 -8.253906 7.761719 -8.269531 7.761719 -8.285156 L 7.761719 -11.0625 C 7.761719 -11.078125 7.746094 -11.109375 7.730469 -11.109375 C 7.695312 -11.109375 7.679688 -11.078125 7.679688 -11.0625 C 7.679688 -10.695312 7.394531 -10.410156 7.03125 -10.410156 C 6.917969 -10.410156 6.808594 -10.425781 6.714844 -10.488281 C 6.238281 -10.871094 5.617188 -11.109375 4.96875 -11.109375 L 3.601562 -11.109375 C 2.046875 -11.109375 0.792969 -9.839844 0.792969 -8.285156 C 0.792969 -6.746094 2.046875 -5.476562 3.601562 -5.476562 L 4.96875 -5.476562 C 5.761719 -5.476562 6.394531 -4.253906 6.394531 -2.761719 C 6.394531 -1.253906 5.761719 -0.03125 4.96875 -0.03125 L 3.601562 -0.03125 C 2.09375 -0.03125 0.871094 -1.253906 0.871094 -2.761719 C 0.871094 -2.777344 0.855469 -2.777344 0.855469 -2.792969 C 0.855469 -2.792969 0.839844 -2.808594 0.824219 -2.808594 C 0.808594 -2.808594 0.808594 -2.792969 0.792969 -2.792969 C 0.792969 -2.777344 0.792969 -2.777344 0.792969 -2.761719 L 0.792969 0 C 0.792969 0.03125 0.808594 0.046875 0.824219 0.046875 C 0.855469 0.046875 0.871094 0.03125 0.871094 0 C 0.871094 -0.347656 1.160156 -0.652344 1.523438 -0.652344 C 1.632812 -0.652344 1.746094 -0.617188 1.839844 -0.570312 C 1.839844 -0.570312 1.839844 -0.554688 1.839844 -0.554688 C 2.332031 -0.175781 2.9375 0.046875 3.601562 0.046875 Z M 3.601562 0.046875 "/></g></g></g><g fill="#242424" fill-opacity="1"><g transform="translate(101.984638, 248.718178)"><g><path d="M 0.824219 -0.03125 C 0.808594 -0.03125 0.792969 -0.015625 0.792969 0 C 0.792969 0.03125 0.808594 0.046875 0.824219 0.046875 L 8.777344 0.046875 C 8.808594 0.046875 8.824219 0.03125 8.824219 0 L 8.824219 -2.316406 C 8.824219 -2.347656 8.808594 -2.363281 8.777344 -2.363281 C 8.761719 -2.363281 8.746094 -2.347656 8.746094 -2.316406 C 8.746094 -1.0625 7.710938 -0.03125 6.460938 -0.03125 L 3.207031 -0.03125 L 3.207031 -5.476562 L 5.332031 -5.476562 C 5.886719 -5.476562 6.347656 -5.03125 6.347656 -4.476562 C 6.347656 -4.445312 6.363281 -4.425781 6.394531 -4.425781 C 6.410156 -4.425781 6.425781 -4.445312 6.425781 -4.476562 L 6.425781 -6.585938 C 6.425781 -6.601562 6.410156 -6.617188 6.394531 -6.617188 C 6.363281 -6.617188 6.347656 -6.601562 6.347656 -6.585938 C 6.347656 -6.015625 5.886719 -5.570312 5.332031 -5.570312 L 3.207031 -5.570312 L 3.207031 -10 C 3.207031 -10.457031 2.9375 -10.855469 2.539062 -11.015625 L 6.460938 -11.015625 C 7.710938 -11.015625 8.746094 -9.980469 8.746094 -8.726562 C 8.746094 -8.710938 8.761719 -8.679688 8.777344 -8.679688 C 8.808594 -8.679688 8.824219 -8.710938 8.824219 -8.726562 C 8.824219 -8.726562 8.824219 -11.0625 8.824219 -11.0625 C 8.824219 -11.078125 8.808594 -11.109375 8.777344 -11.109375 L 2.109375 -11.109375 C 2.109375 -11.109375 2.109375 -11.09375 2.109375 -11.09375 L 0.824219 -11.09375 C 0.808594 -11.09375 0.792969 -11.078125 0.792969 -11.0625 C 0.792969 -11.03125 0.808594 -11.015625 0.824219 -11.015625 C 1.378906 -11.015625 1.839844 -10.554688 1.839844 -10 L 1.839844 -1.046875 C 1.839844 -0.492188 1.378906 -0.03125 0.824219 -0.03125 Z M 0.824219 -0.03125 "/></g></g></g><g fill="#242424" fill-opacity="1"><g transform="translate(101.457295, 270.468177)"><g><path d="M 0.824219 -0.03125 C 0.808594 -0.03125 0.792969 -0.015625 0.792969 0 C 0.792969 0.03125 0.808594 0.046875 0.824219 0.046875 L 4.222656 0.046875 C 4.253906 0.046875 4.269531 0.03125 4.269531 0 C 4.269531 -0.015625 4.253906 -0.03125 4.222656 -0.03125 C 3.664062 -0.03125 3.207031 -0.492188 3.207031 -1.046875 L 3.207031 -5.476562 L 6.015625 -5.476562 C 6.808594 -5.476562 7.457031 -4.253906 7.457031 -2.761719 L 7.457031 -1.046875 C 7.457031 -0.445312 7.949219 0.046875 8.554688 0.046875 L 9.839844 0.046875 C 9.855469 0.046875 9.886719 0.03125 9.886719 0.015625 C 9.886719 -0.015625 9.855469 -0.03125 9.839844 -0.03125 C 9.285156 -0.03125 8.824219 -0.492188 8.824219 -1.046875 L 8.824219 -2.761719 C 8.824219 -4.140625 7.824219 -5.300781 6.507812 -5.523438 C 7.824219 -5.761719 8.824219 -6.902344 8.824219 -8.285156 C 8.824219 -9.839844 7.570312 -11.09375 6.015625 -11.09375 L 0.824219 -11.09375 C 0.808594 -11.09375 0.792969 -11.078125 0.792969 -11.0625 C 0.792969 -11.03125 0.808594 -11.015625 0.824219 -11.015625 C 1.378906 -11.015625 1.839844 -10.554688 1.839844 -10 L 1.839844 -1.046875 C 1.839844 -0.492188 1.378906 -0.03125 0.824219 -0.03125 Z M 6.015625 -11.015625 C 6.808594 -11.015625 7.457031 -9.792969 7.457031 -8.285156 C 7.457031 -6.792969 6.808594 -5.570312 6.015625 -5.570312 L 3.207031 -5.570312 L 3.207031 -10 C 3.207031 -10.457031 2.9375 -10.855469 2.539062 -11.015625 Z M 6.015625 -11.015625 "/></g></g></g><g fill="#242424" fill-opacity="1"><g transform="translate(101.457295, 292.218175)"><g><path d="M 7.679688 -11.0625 C 7.679688 -11.03125 7.695312 -11.015625 7.730469 -11.015625 C 7.984375 -11.015625 8.1875 -10.917969 8.332031 -10.742188 C 8.457031 -10.554688 8.492188 -10.300781 8.410156 -10.015625 L 6 -2.300781 L 3.601562 -10.015625 C 3.507812 -10.300781 3.539062 -10.554688 3.683594 -10.742188 C 3.808594 -10.917969 4.03125 -11.015625 4.285156 -11.015625 C 4.316406 -11.015625 4.332031 -11.03125 4.332031 -11.0625 C 4.332031 -11.078125 4.316406 -11.09375 4.285156 -11.09375 L 0.824219 -11.09375 C 0.808594 -11.09375 0.792969 -11.078125 0.792969 -11.0625 C 0.792969 -11.03125 0.808594 -11.015625 0.824219 -11.015625 C 1.398438 -11.015625 2 -10.554688 2.175781 -10 L 5.285156 0.015625 C 5.285156 0.03125 5.285156 0.03125 5.300781 0.03125 C 5.300781 0.03125 5.300781 0.03125 5.300781 0.046875 C 5.316406 0.046875 5.316406 0.046875 5.316406 0.046875 C 5.316406 0.046875 5.332031 0.046875 5.332031 0.046875 C 5.332031 0.046875 5.332031 0.046875 5.347656 0.046875 C 5.363281 0.03125 5.363281 0.03125 5.363281 0.03125 C 5.363281 0.03125 5.363281 0.03125 5.363281 0.015625 L 6.046875 -2.140625 L 8.507812 -10.015625 C 8.679688 -10.570312 9.285156 -11.015625 9.839844 -11.015625 C 9.855469 -11.015625 9.871094 -11.03125 9.871094 -11.0625 C 9.871094 -11.078125 9.855469 -11.09375 9.839844 -11.09375 L 7.730469 -11.09375 C 7.695312 -11.09375 7.679688 -11.078125 7.679688 -11.0625 Z M 7.679688 -11.0625 "/></g></g></g><g fill="#242424" fill-opacity="1"><g transform="translate(104.269794, 313.968174)"><g><path d="M 0.824219 -0.03125 C 0.808594 -0.03125 0.792969 -0.015625 0.792969 0 C 0.792969 0.03125 0.808594 0.046875 0.824219 0.046875 L 4.222656 0.046875 C 4.253906 0.046875 4.269531 0.03125 4.269531 0 C 4.269531 -0.015625 4.253906 -0.03125 4.222656 -0.03125 C 3.664062 -0.03125 3.207031 -0.492188 3.207031 -1.046875 L 3.207031 -10 C 3.207031 -10.554688 3.664062 -11.015625 4.222656 -11.015625 C 4.253906 -11.015625 4.269531 -11.03125 4.269531 -11.0625 C 4.269531 -11.078125 4.253906 -11.09375 4.222656 -11.09375 L 0.824219 -11.09375 C 0.808594 -11.09375 0.792969 -11.078125 0.792969 -11.0625 C 0.792969 -11.03125 0.808594 -11.015625 0.824219 -11.015625 C 1.378906 -11.015625 1.839844 -10.554688 1.839844 -10 L 1.839844 -1.046875 C 1.839844 -0.492188 1.378906 -0.03125 0.824219 -0.03125 Z M 0.824219 -0.03125 "/></g></g></g><g fill="#242424" fill-opacity="1"><g transform="translate(101.246357, 335.718172)"><g><path d="M 6.363281 0.046875 C 7.347656 0.046875 8.300781 -0.207031 9.125 -0.683594 C 9.238281 -0.730469 9.347656 -0.761719 9.457031 -0.761719 C 9.886719 -0.761719 10.234375 -0.414062 10.234375 0 C 10.234375 0.03125 10.253906 0.046875 10.269531 0.046875 C 10.300781 0.046875 10.316406 0.03125 10.316406 0 L 10.316406 -2.285156 C 10.316406 -2.300781 10.300781 -2.316406 10.269531 -2.316406 C 10.253906 -2.316406 10.234375 -2.300781 10.234375 -2.285156 L 10.234375 -1.632812 C 9.886719 -1.285156 9.507812 -1 9.09375 -0.761719 C 9.09375 -0.761719 9.09375 -0.761719 9.078125 -0.761719 C 9.0625 -0.746094 9.03125 -0.730469 9 -0.714844 C 8.203125 -0.269531 7.300781 -0.03125 6.363281 -0.03125 C 4.046875 -0.03125 2.160156 -2.492188 2.160156 -5.523438 C 2.160156 -8.554688 4.046875 -11.015625 6.363281 -11.015625 C 7.300781 -11.015625 8.203125 -10.777344 9 -10.347656 C 9 -10.347656 9 -10.332031 9 -10.332031 C 9.03125 -10.316406 9.0625 -10.300781 9.078125 -10.300781 C 9.09375 -10.285156 9.09375 -10.285156 9.09375 -10.285156 C 9.507812 -10.046875 9.886719 -9.761719 10.234375 -9.425781 L 10.234375 -8.777344 C 10.234375 -8.746094 10.253906 -8.726562 10.269531 -8.726562 C 10.300781 -8.726562 10.316406 -8.746094 10.316406 -8.777344 C 10.316406 -8.777344 10.316406 -11.0625 10.316406 -11.0625 C 10.316406 -11.078125 10.300781 -11.109375 10.269531 -11.109375 C 10.253906 -11.109375 10.234375 -11.078125 10.234375 -11.0625 C 10.234375 -10.632812 9.886719 -10.285156 9.457031 -10.285156 C 9.347656 -10.285156 9.238281 -10.316406 9.125 -10.363281 C 8.300781 -10.839844 7.347656 -11.09375 6.363281 -11.09375 C 4.871094 -11.09375 3.476562 -10.523438 2.414062 -9.472656 C 0.238281 -7.300781 0.238281 -3.761719 2.414062 -1.585938 C 3.476562 -0.523438 4.871094 0.046875 6.363281 0.046875 Z M 6.363281 0.046875 "/></g></g></g><g fill="#242424" fill-opacity="1"><g transform="translate(101.984638, 357.468171)"><g><path d="M 0.824219 -0.03125 C 0.808594 -0.03125 0.792969 -0.015625 0.792969 0 C 0.792969 0.03125 0.808594 0.046875 0.824219 0.046875 L 8.777344 0.046875 C 8.808594 0.046875 8.824219 0.03125 8.824219 0 L 8.824219 -2.316406 C 8.824219 -2.347656 8.808594 -2.363281 8.777344 -2.363281 C 8.761719 -2.363281 8.746094 -2.347656 8.746094 -2.316406 C 8.746094 -1.0625 7.710938 -0.03125 6.460938 -0.03125 L 3.207031 -0.03125 L 3.207031 -5.476562 L 5.332031 -5.476562 C 5.886719 -5.476562 6.347656 -5.03125 6.347656 -4.476562 C 6.347656 -4.445312 6.363281 -4.425781 6.394531 -4.425781 C 6.410156 -4.425781 6.425781 -4.445312 6.425781 -4.476562 L 6.425781 -6.585938 C 6.425781 -6.601562 6.410156 -6.617188 6.394531 -6.617188 C 6.363281 -6.617188 6.347656 -6.601562 6.347656 -6.585938 C 6.347656 -6.015625 5.886719 -5.570312 5.332031 -5.570312 L 3.207031 -5.570312 L 3.207031 -10 C 3.207031 -10.457031 2.9375 -10.855469 2.539062 -11.015625 L 6.460938 -11.015625 C 7.710938 -11.015625 8.746094 -9.980469 8.746094 -8.726562 C 8.746094 -8.710938 8.761719 -8.679688 8.777344 -8.679688 C 8.808594 -8.679688 8.824219 -8.710938 8.824219 -8.726562 C 8.824219 -8.726562 8.824219 -11.0625 8.824219 -11.0625 C 8.824219 -11.078125 8.808594 -11.109375 8.777344 -11.109375 L 2.109375 -11.109375 C 2.109375 -11.109375 2.109375 -11.09375 2.109375 -11.09375 L 0.824219 -11.09375 C 0.808594 -11.09375 0.792969 -11.078125 0.792969 -11.0625 C 0.792969 -11.03125 0.808594 -11.015625 0.824219 -11.015625 C 1.378906 -11.015625 1.839844 -10.554688 1.839844 -10 L 1.839844 -1.046875 C 1.839844 -0.492188 1.378906 -0.03125 0.824219 -0.03125 Z M 0.824219 -0.03125 "/></g></g></g></svg>