<svg xmlns="http://www.w3.org/2000/svg" xmlns:xlink="http://www.w3.org/1999/xlink" width="500" zoomAndPan="magnify" viewBox="0 0 375 374.999991" height="500" preserveAspectRatio="xMidYMid meet" version="1.0"><defs><g/><clipPath id="c251f45100"><path d="M 222 242.328125 L 282.6875 242.328125 L 282.6875 309 L 222 309 Z M 222 242.328125 " clip-rule="nonzero"/></clipPath><clipPath id="3fcaa7043f"><path d="M 183 296 L 236 296 L 236 351.078125 L 183 351.078125 Z M 183 296 " clip-rule="nonzero"/></clipPath></defs><rect x="-37.5" width="450" fill="#ffffff" y="-37.499999" height="449.999989" fill-opacity="1"/><rect x="-37.5" width="450" fill="#ffffff" y="-37.499999" height="449.999989" fill-opacity="1"/><rect x="-37.5" width="450" fill="#ffffff" y="-37.499999" height="449.999989" fill-opacity="1"/><g clip-path="url(#c251f45100)"><path fill="#ff6000" d="M 282.578125 247.632812 L 276.742188 242.34375 L 262.546875 252.230469 L 257.816406 263.367188 L 222.277344 302.851562 L 228.109375 308.140625 L 263.652344 268.65625 L 274.214844 262.804688 Z M 282.578125 247.632812 " fill-opacity="1" fill-rule="nonzero"/></g><g clip-path="url(#3fcaa7043f)"><path fill="#ff6000" d="M 193.816406 351.085938 C 191.996094 351.085938 190.253906 350.414062 188.914062 349.199219 L 185.546875 346.148438 C 182.550781 343.429688 182.3125 338.773438 185.019531 335.769531 L 214.816406 302.664062 C 214.992188 302.472656 215.179688 302.285156 215.375 302.109375 C 215.058594 301.574219 214.875 300.964844 214.84375 300.324219 C 214.792969 299.277344 215.144531 298.277344 215.839844 297.503906 C 216.578125 296.6875 217.628906 296.21875 218.734375 296.21875 C 219.699219 296.21875 220.628906 296.574219 221.34375 297.222656 L 233.785156 308.5 C 234.554688 309.199219 235.007812 310.160156 235.0625 311.203125 C 235.117188 312.25 234.761719 313.25 234.066406 314.023438 C 233.332031 314.839844 232.277344 315.308594 231.171875 315.308594 C 230.605469 315.308594 230.050781 315.183594 229.546875 314.953125 C 229.394531 315.167969 229.230469 315.371094 229.054688 315.566406 L 199.253906 348.667969 C 197.875 350.203125 195.890625 351.085938 193.816406 351.085938 Z M 218.734375 298.777344 C 218.351562 298.777344 217.984375 298.9375 217.734375 299.21875 C 217.492188 299.484375 217.371094 299.832031 217.390625 300.195312 C 217.410156 300.554688 217.5625 300.886719 217.828125 301.128906 L 218.105469 301.378906 C 218.410156 301.652344 218.5625 302.058594 218.519531 302.464844 C 218.472656 302.875 218.238281 303.234375 217.882812 303.4375 C 217.4375 303.691406 217.042969 304.007812 216.710938 304.378906 L 186.910156 337.484375 C 185.148438 339.441406 185.300781 342.476562 187.253906 344.246094 L 190.621094 347.296875 C 191.496094 348.089844 192.628906 348.527344 193.816406 348.527344 C 195.171875 348.527344 196.464844 347.953125 197.363281 346.953125 L 227.160156 313.851562 C 227.496094 313.480469 227.769531 313.054688 227.976562 312.585938 C 228.140625 312.210938 228.476562 311.9375 228.875 311.851562 C 229.273438 311.765625 229.691406 311.878906 229.996094 312.152344 L 230.273438 312.40625 C 230.519531 312.625 230.835938 312.75 231.171875 312.75 C 231.554688 312.75 231.921875 312.589844 232.171875 312.308594 C 232.414062 312.042969 232.535156 311.695312 232.515625 311.332031 C 232.496094 310.96875 232.339844 310.640625 232.078125 310.398438 L 219.632812 299.121094 C 219.386719 298.898438 219.066406 298.777344 218.734375 298.777344 Z M 218.734375 298.777344 " fill-opacity="1" fill-rule="nonzero"/></g><g fill="#ffa559" fill-opacity="1"><g transform="translate(75.243699, 202.148911)"><g><path d="M 13.089844 -0.503906 C 12.835938 -0.503906 12.585938 -0.25 12.585938 0 C 12.585938 0.503906 12.835938 0.753906 13.089844 0.753906 L 139.191406 0.753906 C 139.691406 0.753906 139.945312 0.503906 139.945312 0 L 139.945312 -36.75 C 139.945312 -37.25 139.691406 -37.503906 139.191406 -37.503906 C 138.9375 -37.503906 138.6875 -37.25 138.6875 -36.75 C 138.6875 -16.863281 122.324219 -0.503906 102.441406 -0.503906 L 50.84375 -0.503906 L 50.84375 -86.835938 L 84.570312 -86.835938 C 93.378906 -86.835938 100.679688 -79.789062 100.679688 -70.980469 C 100.679688 -70.476562 100.929688 -70.222656 101.433594 -70.222656 C 101.6875 -70.222656 101.9375 -70.476562 101.9375 -70.980469 L 101.9375 -104.457031 C 101.9375 -104.707031 101.6875 -104.957031 101.433594 -104.957031 C 100.929688 -104.957031 100.679688 -104.707031 100.679688 -104.457031 C 100.679688 -95.394531 93.378906 -88.347656 84.570312 -88.347656 L 50.84375 -88.347656 L 50.84375 -158.570312 C 50.84375 -165.871094 46.5625 -172.164062 40.273438 -174.679688 L 102.441406 -174.679688 C 122.324219 -174.679688 138.6875 -158.320312 138.6875 -138.433594 C 138.6875 -138.183594 138.9375 -137.679688 139.191406 -137.679688 C 139.691406 -137.679688 139.945312 -138.183594 139.945312 -138.433594 C 139.945312 -138.433594 139.945312 -175.433594 139.945312 -175.433594 C 139.945312 -175.6875 139.691406 -176.191406 139.191406 -176.191406 L 33.476562 -176.191406 C 33.476562 -176.191406 33.476562 -175.9375 33.476562 -175.9375 L 13.089844 -175.9375 C 12.835938 -175.9375 12.585938 -175.6875 12.585938 -175.433594 C 12.585938 -174.929688 12.835938 -174.679688 13.089844 -174.679688 C 21.898438 -174.679688 29.195312 -167.378906 29.195312 -158.570312 L 29.195312 -16.613281 C 29.195312 -7.800781 21.898438 -0.503906 13.089844 -0.503906 Z M 13.089844 -0.503906 "/></g></g></g><g fill="#ff6000" fill-opacity="1"><g transform="translate(78.88064, 272.534503)"><g><path d="M 128.929688 -24.710938 C 105.554688 -31.628906 68.8125 -28.207031 57.023438 -3.070312 C 49.164062 13.6875 57.460938 28.230469 73.347656 35.679688 C 72.632812 38.113281 71.609375 42.105469 71.101562 45.914062 C 70.148438 52.492188 69.328125 54.238281 70.199219 54.648438 C 70.722656 54.894531 71.15625 54.882812 71.320312 54.535156 C 71.808594 53.488281 72.703125 44.320312 75.441406 36.664062 C 94.808594 45.320312 128.949219 37.90625 138.449219 17.660156 C 142.132812 9.804688 140.601562 0.355469 132.046875 -3.65625 C 114.242188 -12.007812 89.003906 -0.421875 76.558594 26.113281 C 75.492188 28.378906 74.695312 30.988281 74.0625 33.246094 C 63.976562 26.597656 61.851562 17.511719 67.910156 4.59375 C 81.335938 -24.035156 117.617188 -28.742188 131.582031 -22.191406 C 133.675781 -21.207031 134.789062 -18.132812 140.898438 -15.265625 C 143.34375 -14.117188 145.242188 -14.082031 145.976562 -15.652344 C 146.632812 -17.046875 143.539062 -19.988281 140.222656 -21.542969 C 137.257812 -22.9375 134.484375 -23.382812 133.4375 -23.875 C 129.074219 -25.921875 128.265625 -30.558594 129.019531 -34.890625 C 141.917969 -29.695312 192.28125 -29.921875 199.898438 -46.15625 C 202.925781 -52.617188 200.230469 -56.863281 193.949219 -59.808594 C 183.824219 -64.558594 172.421875 -65.21875 161.554688 -65.207031 C 156.183594 -76.457031 147.222656 -86.410156 135.699219 -91.8125 C 119.816406 -99.265625 96.984375 -98.261719 88.714844 -80.628906 C 81.511719 -65.269531 91.753906 -48.964844 110.777344 -40.039062 C 114.269531 -38.402344 118.007812 -37.289062 121.90625 -36.523438 C 123.65625 -32.082031 125.910156 -28.257812 129.09375 -25.0625 Z M 198.375 -48.363281 C 191.335938 -33.351562 152.730469 -31.863281 130.308594 -38.546875 C 135.875 -50.417969 148.492188 -56.425781 162.054688 -59.007812 C 166.285156 -48.503906 165.664062 -45.816406 166.710938 -45.324219 C 167.234375 -45.078125 167.746094 -45.265625 168.074219 -45.964844 C 168.238281 -46.3125 166.257812 -52.992188 164.292969 -59.238281 C 172.714844 -60.398438 184.9375 -61.480469 192.964844 -57.714844 C 198.550781 -55.09375 200.175781 -52.203125 198.375 -48.363281 Z M 95.054688 -82.339844 C 101.769531 -96.65625 123.199219 -95.121094 134.371094 -89.882812 C 145.191406 -84.804688 153.957031 -75.796875 159.316406 -64.976562 C 146.050781 -64.386719 129.257812 -59.910156 123.199219 -46.992188 C 122.378906 -45.246094 121.816406 -43.59375 121.253906 -41.941406 C 119.078125 -42.75 116.902344 -43.558594 114.980469 -44.457031 C 98.398438 -52.238281 87.523438 -66.28125 95.054688 -82.339844 Z M 136.351562 16.675781 C 127.511719 35.527344 94.25 43.78125 76.25 34.484375 C 76.648438 33.183594 77.304688 31.785156 78.039062 30.214844 C 87.046875 11.011719 116.945312 -7.332031 130.910156 -0.78125 C 138.242188 2.65625 139.710938 9.519531 136.351562 16.675781 Z M 136.351562 16.675781 "/></g></g></g><g fill="#242424" fill-opacity="1"><g transform="translate(252.624561, 47.219482)"><g><path d="M 3.601562 0.046875 L 4.96875 0.046875 C 6.507812 0.046875 7.777344 -1.207031 7.777344 -2.761719 C 7.777344 -4.300781 6.507812 -5.570312 4.96875 -5.570312 L 3.601562 -5.570312 C 2.808594 -5.570312 2.160156 -6.792969 2.160156 -8.285156 C 2.160156 -9.792969 2.808594 -11.015625 3.601562 -11.015625 L 4.96875 -11.015625 C 6.460938 -11.015625 7.679688 -9.792969 7.679688 -8.285156 C 7.679688 -8.269531 7.695312 -8.253906 7.730469 -8.253906 C 7.746094 -8.253906 7.761719 -8.269531 7.761719 -8.285156 L 7.761719 -11.0625 C 7.761719 -11.078125 7.746094 -11.109375 7.730469 -11.109375 C 7.695312 -11.109375 7.679688 -11.078125 7.679688 -11.0625 C 7.679688 -10.695312 7.394531 -10.410156 7.03125 -10.410156 C 6.917969 -10.410156 6.808594 -10.425781 6.714844 -10.488281 C 6.238281 -10.871094 5.617188 -11.109375 4.96875 -11.109375 L 3.601562 -11.109375 C 2.046875 -11.109375 0.792969 -9.839844 0.792969 -8.285156 C 0.792969 -6.746094 2.046875 -5.476562 3.601562 -5.476562 L 4.96875 -5.476562 C 5.761719 -5.476562 6.394531 -4.253906 6.394531 -2.761719 C 6.394531 -1.253906 5.761719 -0.03125 4.96875 -0.03125 L 3.601562 -0.03125 C 2.09375 -0.03125 0.871094 -1.253906 0.871094 -2.761719 C 0.871094 -2.777344 0.855469 -2.777344 0.855469 -2.792969 C 0.855469 -2.792969 0.839844 -2.808594 0.824219 -2.808594 C 0.808594 -2.808594 0.808594 -2.792969 0.792969 -2.792969 C 0.792969 -2.777344 0.792969 -2.777344 0.792969 -2.761719 L 0.792969 0 C 0.792969 0.03125 0.808594 0.046875 0.824219 0.046875 C 0.855469 0.046875 0.871094 0.03125 0.871094 0 C 0.871094 -0.347656 1.160156 -0.652344 1.523438 -0.652344 C 1.632812 -0.652344 1.746094 -0.617188 1.839844 -0.570312 C 1.839844 -0.570312 1.839844 -0.554688 1.839844 -0.554688 C 2.332031 -0.175781 2.9375 0.046875 3.601562 0.046875 Z M 3.601562 0.046875 "/></g></g></g><g fill="#242424" fill-opacity="1"><g transform="translate(250.537502, 68.37937)"><g><path d="M 6.363281 0.046875 C 9.441406 0.046875 11.933594 -2.445312 11.933594 -5.523438 C 11.933594 -8.601562 9.441406 -11.09375 6.363281 -11.09375 C 3.285156 -11.09375 0.792969 -8.601562 0.792969 -5.523438 C 0.792969 -2.445312 3.285156 0.046875 6.363281 0.046875 Z M 6.363281 -0.03125 C 4.046875 -0.03125 2.160156 -2.492188 2.160156 -5.523438 C 2.160156 -8.554688 4.046875 -11.015625 6.363281 -11.015625 C 8.679688 -11.015625 10.570312 -8.554688 10.570312 -5.523438 C 10.570312 -2.492188 8.679688 -0.03125 6.363281 -0.03125 Z M 6.363281 -0.03125 "/></g></g></g><g fill="#242424" fill-opacity="1"><g transform="translate(252.087299, 89.539258)"><g><path d="M 2.109375 -11.09375 L 0.824219 -11.09375 C 0.808594 -11.09375 0.792969 -11.078125 0.792969 -11.0625 C 0.792969 -11.03125 0.808594 -11.015625 0.824219 -11.015625 C 1.378906 -11.015625 1.839844 -10.554688 1.839844 -10 L 1.839844 -1.046875 C 1.839844 -0.492188 1.378906 -0.03125 0.824219 -0.03125 C 0.808594 -0.03125 0.792969 -0.015625 0.792969 0 C 0.792969 0.03125 0.808594 0.046875 0.824219 0.046875 L 4.222656 0.046875 C 4.253906 0.046875 4.269531 0.03125 4.269531 0 C 4.269531 -0.015625 4.253906 -0.03125 4.222656 -0.03125 C 3.664062 -0.03125 3.207031 -0.492188 3.207031 -1.046875 L 3.207031 -5.476562 L 5.332031 -5.476562 C 5.886719 -5.476562 6.347656 -5.03125 6.347656 -4.476562 C 6.347656 -4.445312 6.363281 -4.425781 6.394531 -4.425781 C 6.410156 -4.425781 6.425781 -4.445312 6.425781 -4.476562 L 6.425781 -6.585938 C 6.425781 -6.601562 6.410156 -6.617188 6.394531 -6.617188 C 6.363281 -6.617188 6.347656 -6.601562 6.347656 -6.585938 C 6.347656 -6.015625 5.886719 -5.570312 5.332031 -5.570312 L 3.207031 -5.570312 L 3.207031 -10 C 3.207031 -10.457031 2.9375 -10.855469 2.539062 -11.015625 L 6.460938 -11.015625 C 7.710938 -11.015625 8.746094 -9.980469 8.746094 -8.726562 C 8.746094 -8.710938 8.761719 -8.679688 8.777344 -8.679688 C 8.808594 -8.679688 8.824219 -8.710938 8.824219 -8.726562 C 8.824219 -8.726562 8.824219 -11.0625 8.824219 -11.0625 C 8.824219 -11.078125 8.808594 -11.109375 8.777344 -11.109375 L 2.109375 -11.109375 C 2.109375 -11.109375 2.109375 -11.09375 2.109375 -11.09375 Z M 2.109375 -11.09375 "/></g></g></g><g fill="#242424" fill-opacity="1"><g transform="translate(252.624561, 110.699146)"><g><path d="M 0.824219 -8.679688 C 0.855469 -8.679688 0.871094 -8.710938 0.871094 -8.726562 C 0.871094 -9.980469 1.90625 -11.015625 3.15625 -11.015625 L 3.585938 -11.015625 L 3.585938 -1.046875 C 3.585938 -0.492188 3.140625 -0.03125 2.570312 -0.03125 C 2.554688 -0.03125 2.539062 -0.015625 2.539062 0 C 2.539062 0.03125 2.554688 0.046875 2.570312 0.046875 L 5.984375 0.046875 C 6 0.046875 6.015625 0.03125 6.015625 0 C 6.015625 -0.015625 6 -0.03125 5.984375 -0.03125 C 5.410156 -0.03125 4.96875 -0.492188 4.96875 -1.046875 L 4.96875 -11.015625 L 5.394531 -11.015625 C 6.648438 -11.015625 7.679688 -9.980469 7.679688 -8.726562 C 7.679688 -8.710938 7.695312 -8.679688 7.730469 -8.679688 C 7.746094 -8.679688 7.761719 -8.710938 7.761719 -8.726562 L 7.761719 -11.0625 C 7.761719 -11.078125 7.746094 -11.09375 7.730469 -11.09375 L 0.824219 -11.09375 C 0.808594 -11.09375 0.792969 -11.078125 0.792969 -11.0625 L 0.792969 -8.726562 C 0.777344 -8.710938 0.808594 -8.679688 0.824219 -8.679688 Z M 0.824219 -8.679688 "/></g></g></g><g fill="#242424" fill-opacity="1"><g transform="translate(249.318329, 131.859034)"><g><path d="M 14.332031 -11.09375 L 12.21875 -11.09375 C 12.203125 -11.09375 12.1875 -11.078125 12.1875 -11.0625 C 12.1875 -11.03125 12.203125 -11.015625 12.21875 -11.015625 C 12.488281 -11.015625 12.695312 -10.917969 12.824219 -10.742188 C 12.964844 -10.554688 12.996094 -10.300781 12.917969 -10.015625 L 10.507812 -2.300781 L 8.300781 -9.378906 L 8.492188 -10.015625 L 8.507812 -10.015625 C 8.679688 -10.570312 9.285156 -11.015625 9.839844 -11.015625 C 9.855469 -11.015625 9.871094 -11.03125 9.871094 -11.0625 C 9.871094 -11.078125 9.855469 -11.09375 9.839844 -11.09375 L 7.730469 -11.09375 C 7.730469 -11.09375 7.730469 -11.109375 7.730469 -11.109375 C 7.695312 -11.109375 7.679688 -11.078125 7.679688 -11.0625 C 7.679688 -11.046875 7.695312 -11.03125 7.710938 -11.015625 C 7.710938 -11.015625 7.710938 -11.015625 7.730469 -11.015625 C 7.933594 -11.015625 8.09375 -10.949219 8.21875 -10.839844 C 8.441406 -10.664062 8.507812 -10.347656 8.410156 -10.03125 L 8.410156 -10.015625 L 8.21875 -9.394531 L 7.539062 -7.238281 L 6 -2.300781 L 3.601562 -10.015625 C 3.507812 -10.300781 3.539062 -10.554688 3.683594 -10.742188 C 3.808594 -10.917969 4.03125 -11.015625 4.285156 -11.015625 C 4.316406 -11.015625 4.332031 -11.03125 4.332031 -11.0625 C 4.332031 -11.078125 4.316406 -11.09375 4.285156 -11.09375 L 0.824219 -11.09375 C 0.808594 -11.09375 0.792969 -11.078125 0.792969 -11.0625 C 0.792969 -11.03125 0.808594 -11.015625 0.824219 -11.015625 C 1.398438 -11.015625 2 -10.554688 2.175781 -10 L 5.285156 0.015625 C 5.285156 0.015625 5.285156 0.015625 5.285156 0.03125 C 5.285156 0.03125 5.285156 0.03125 5.300781 0.03125 C 5.300781 0.03125 5.300781 0.03125 5.300781 0.046875 C 5.316406 0.046875 5.316406 0.046875 5.316406 0.046875 C 5.316406 0.046875 5.316406 0.046875 5.332031 0.046875 C 5.347656 0.046875 5.363281 0.03125 5.363281 0.015625 L 7.585938 -7.078125 L 9.792969 0.015625 C 9.792969 0.03125 9.792969 0.03125 9.792969 0.03125 C 9.808594 0.03125 9.808594 0.03125 9.808594 0.046875 C 9.808594 0.046875 9.808594 0.046875 9.824219 0.046875 C 9.824219 0.046875 9.824219 0.046875 9.839844 0.046875 C 9.855469 0.046875 9.871094 0.03125 9.871094 0.015625 L 10.554688 -2.140625 L 12.996094 -9.980469 C 12.996094 -9.980469 12.996094 -10 12.996094 -10 C 13.171875 -10.554688 13.773438 -11.015625 14.332031 -11.015625 C 14.363281 -11.015625 14.378906 -11.03125 14.378906 -11.0625 C 14.378906 -11.078125 14.363281 -11.09375 14.332031 -11.09375 Z M 14.332031 -11.09375 "/></g></g></g><g fill="#242424" fill-opacity="1"><g transform="translate(251.5707, 153.018923)"><g><path d="M 0.824219 -0.03125 C 0.808594 -0.03125 0.792969 -0.015625 0.792969 0 C 0.792969 0.03125 0.808594 0.046875 0.824219 0.046875 L 2.9375 0.046875 C 2.96875 0.046875 2.984375 0.03125 2.984375 0 C 2.984375 -0.015625 2.96875 -0.03125 2.9375 -0.03125 C 2.683594 -0.03125 2.476562 -0.128906 2.332031 -0.300781 C 2.191406 -0.492188 2.175781 -0.761719 2.253906 -1.03125 L 4.664062 -8.761719 L 7.0625 -1.03125 C 7.140625 -0.761719 7.125 -0.492188 6.984375 -0.300781 C 6.855469 -0.128906 6.632812 -0.03125 6.378906 -0.03125 C 6.347656 -0.03125 6.332031 -0.015625 6.332031 0 C 6.332031 0.03125 6.347656 0.046875 6.378906 0.046875 L 9.839844 0.046875 C 9.855469 0.046875 9.871094 0.03125 9.871094 0 C 9.871094 -0.015625 9.855469 -0.03125 9.839844 -0.03125 C 9.269531 -0.03125 8.664062 -0.492188 8.492188 -1.0625 L 5.378906 -11.078125 C 5.378906 -11.078125 5.363281 -11.078125 5.363281 -11.078125 C 5.363281 -11.09375 5.363281 -11.09375 5.363281 -11.09375 C 5.347656 -11.09375 5.347656 -11.09375 5.347656 -11.09375 C 5.347656 -11.09375 5.332031 -11.09375 5.332031 -11.09375 C 5.332031 -11.09375 5.332031 -11.109375 5.332031 -11.109375 C 5.332031 -11.109375 5.332031 -11.09375 5.332031 -11.09375 C 5.332031 -11.09375 5.316406 -11.09375 5.316406 -11.09375 C 5.300781 -11.09375 5.300781 -11.09375 5.300781 -11.09375 C 5.300781 -11.09375 5.300781 -11.09375 5.300781 -11.078125 C 5.300781 -11.078125 5.300781 -11.078125 5.285156 -11.078125 L 4.617188 -8.902344 L 2.175781 -1.0625 C 2 -0.492188 1.398438 -0.03125 0.824219 -0.03125 Z M 0.824219 -0.03125 "/></g></g></g><g fill="#242424" fill-opacity="1"><g transform="translate(251.5707, 174.178811)"><g><path d="M 0.824219 -0.03125 C 0.808594 -0.03125 0.792969 -0.015625 0.792969 0 C 0.792969 0.03125 0.808594 0.046875 0.824219 0.046875 L 4.222656 0.046875 C 4.253906 0.046875 4.269531 0.03125 4.269531 0 C 4.269531 -0.015625 4.253906 -0.03125 4.222656 -0.03125 C 3.664062 -0.03125 3.207031 -0.492188 3.207031 -1.046875 L 3.207031 -5.476562 L 6.015625 -5.476562 C 6.808594 -5.476562 7.457031 -4.253906 7.457031 -2.761719 L 7.457031 -1.046875 C 7.457031 -0.445312 7.949219 0.046875 8.554688 0.046875 L 9.839844 0.046875 C 9.855469 0.046875 9.886719 0.03125 9.886719 0.015625 C 9.886719 -0.015625 9.855469 -0.03125 9.839844 -0.03125 C 9.285156 -0.03125 8.824219 -0.492188 8.824219 -1.046875 L 8.824219 -2.761719 C 8.824219 -4.140625 7.824219 -5.300781 6.507812 -5.523438 C 7.824219 -5.761719 8.824219 -6.902344 8.824219 -8.285156 C 8.824219 -9.839844 7.570312 -11.09375 6.015625 -11.09375 L 0.824219 -11.09375 C 0.808594 -11.09375 0.792969 -11.078125 0.792969 -11.0625 C 0.792969 -11.03125 0.808594 -11.015625 0.824219 -11.015625 C 1.378906 -11.015625 1.839844 -10.554688 1.839844 -10 L 1.839844 -1.046875 C 1.839844 -0.492188 1.378906 -0.03125 0.824219 -0.03125 Z M 6.015625 -11.015625 C 6.808594 -11.015625 7.457031 -9.792969 7.457031 -8.285156 C 7.457031 -6.792969 6.808594 -5.570312 6.015625 -5.570312 L 3.207031 -5.570312 L 3.207031 -10 C 3.207031 -10.457031 2.9375 -10.855469 2.539062 -11.015625 Z M 6.015625 -11.015625 "/></g></g></g><g fill="#242424" fill-opacity="1"><g transform="translate(252.087299, 195.338699)"><g><path d="M 0.824219 -0.03125 C 0.808594 -0.03125 0.792969 -0.015625 0.792969 0 C 0.792969 0.03125 0.808594 0.046875 0.824219 0.046875 L 8.777344 0.046875 C 8.808594 0.046875 8.824219 0.03125 8.824219 0 L 8.824219 -2.316406 C 8.824219 -2.347656 8.808594 -2.363281 8.777344 -2.363281 C 8.761719 -2.363281 8.746094 -2.347656 8.746094 -2.316406 C 8.746094 -1.0625 7.710938 -0.03125 6.460938 -0.03125 L 3.207031 -0.03125 L 3.207031 -5.476562 L 5.332031 -5.476562 C 5.886719 -5.476562 6.347656 -5.03125 6.347656 -4.476562 C 6.347656 -4.445312 6.363281 -4.425781 6.394531 -4.425781 C 6.410156 -4.425781 6.425781 -4.445312 6.425781 -4.476562 L 6.425781 -6.585938 C 6.425781 -6.601562 6.410156 -6.617188 6.394531 -6.617188 C 6.363281 -6.617188 6.347656 -6.601562 6.347656 -6.585938 C 6.347656 -6.015625 5.886719 -5.570312 5.332031 -5.570312 L 3.207031 -5.570312 L 3.207031 -10 C 3.207031 -10.457031 2.9375 -10.855469 2.539062 -11.015625 L 6.460938 -11.015625 C 7.710938 -11.015625 8.746094 -9.980469 8.746094 -8.726562 C 8.746094 -8.710938 8.761719 -8.679688 8.777344 -8.679688 C 8.808594 -8.679688 8.824219 -8.710938 8.824219 -8.726562 C 8.824219 -8.726562 8.824219 -11.0625 8.824219 -11.0625 C 8.824219 -11.078125 8.808594 -11.109375 8.777344 -11.109375 L 2.109375 -11.109375 C 2.109375 -11.109375 2.109375 -11.09375 2.109375 -11.09375 L 0.824219 -11.09375 C 0.808594 -11.09375 0.792969 -11.078125 0.792969 -11.0625 C 0.792969 -11.03125 0.808594 -11.015625 0.824219 -11.015625 C 1.378906 -11.015625 1.839844 -10.554688 1.839844 -10 L 1.839844 -1.046875 C 1.839844 -0.492188 1.378906 -0.03125 0.824219 -0.03125 Z M 0.824219 -0.03125 "/></g></g></g><g fill="#242424" fill-opacity="1"><g transform="translate(102.523613, 227.088097)"><g><path d="M 3.601562 0.046875 L 4.96875 0.046875 C 6.507812 0.046875 7.777344 -1.207031 7.777344 -2.761719 C 7.777344 -4.300781 6.507812 -5.570312 4.96875 -5.570312 L 3.601562 -5.570312 C 2.808594 -5.570312 2.160156 -6.792969 2.160156 -8.285156 C 2.160156 -9.792969 2.808594 -11.015625 3.601562 -11.015625 L 4.96875 -11.015625 C 6.460938 -11.015625 7.679688 -9.792969 7.679688 -8.285156 C 7.679688 -8.269531 7.695312 -8.253906 7.730469 -8.253906 C 7.746094 -8.253906 7.761719 -8.269531 7.761719 -8.285156 L 7.761719 -11.0625 C 7.761719 -11.078125 7.746094 -11.109375 7.730469 -11.109375 C 7.695312 -11.109375 7.679688 -11.078125 7.679688 -11.0625 C 7.679688 -10.695312 7.394531 -10.410156 7.03125 -10.410156 C 6.917969 -10.410156 6.808594 -10.425781 6.714844 -10.488281 C 6.238281 -10.871094 5.617188 -11.109375 4.96875 -11.109375 L 3.601562 -11.109375 C 2.046875 -11.109375 0.792969 -9.839844 0.792969 -8.285156 C 0.792969 -6.746094 2.046875 -5.476562 3.601562 -5.476562 L 4.96875 -5.476562 C 5.761719 -5.476562 6.394531 -4.253906 6.394531 -2.761719 C 6.394531 -1.253906 5.761719 -0.03125 4.96875 -0.03125 L 3.601562 -0.03125 C 2.09375 -0.03125 0.871094 -1.253906 0.871094 -2.761719 C 0.871094 -2.777344 0.855469 -2.777344 0.855469 -2.792969 C 0.855469 -2.792969 0.839844 -2.808594 0.824219 -2.808594 C 0.808594 -2.808594 0.808594 -2.792969 0.792969 -2.792969 C 0.792969 -2.777344 0.792969 -2.777344 0.792969 -2.761719 L 0.792969 0 C 0.792969 0.03125 0.808594 0.046875 0.824219 0.046875 C 0.855469 0.046875 0.871094 0.03125 0.871094 0 C 0.871094 -0.347656 1.160156 -0.652344 1.523438 -0.652344 C 1.632812 -0.652344 1.746094 -0.617188 1.839844 -0.570312 C 1.839844 -0.570312 1.839844 -0.554688 1.839844 -0.554688 C 2.332031 -0.175781 2.9375 0.046875 3.601562 0.046875 Z M 3.601562 0.046875 "/></g></g></g><g fill="#242424" fill-opacity="1"><g transform="translate(101.98635, 248.247985)"><g><path d="M 0.824219 -0.03125 C 0.808594 -0.03125 0.792969 -0.015625 0.792969 0 C 0.792969 0.03125 0.808594 0.046875 0.824219 0.046875 L 8.777344 0.046875 C 8.808594 0.046875 8.824219 0.03125 8.824219 0 L 8.824219 -2.316406 C 8.824219 -2.347656 8.808594 -2.363281 8.777344 -2.363281 C 8.761719 -2.363281 8.746094 -2.347656 8.746094 -2.316406 C 8.746094 -1.0625 7.710938 -0.03125 6.460938 -0.03125 L 3.207031 -0.03125 L 3.207031 -5.476562 L 5.332031 -5.476562 C 5.886719 -5.476562 6.347656 -5.03125 6.347656 -4.476562 C 6.347656 -4.445312 6.363281 -4.425781 6.394531 -4.425781 C 6.410156 -4.425781 6.425781 -4.445312 6.425781 -4.476562 L 6.425781 -6.585938 C 6.425781 -6.601562 6.410156 -6.617188 6.394531 -6.617188 C 6.363281 -6.617188 6.347656 -6.601562 6.347656 -6.585938 C 6.347656 -6.015625 5.886719 -5.570312 5.332031 -5.570312 L 3.207031 -5.570312 L 3.207031 -10 C 3.207031 -10.457031 2.9375 -10.855469 2.539062 -11.015625 L 6.460938 -11.015625 C 7.710938 -11.015625 8.746094 -9.980469 8.746094 -8.726562 C 8.746094 -8.710938 8.761719 -8.679688 8.777344 -8.679688 C 8.808594 -8.679688 8.824219 -8.710938 8.824219 -8.726562 C 8.824219 -8.726562 8.824219 -11.0625 8.824219 -11.0625 C 8.824219 -11.078125 8.808594 -11.109375 8.777344 -11.109375 L 2.109375 -11.109375 C 2.109375 -11.109375 2.109375 -11.09375 2.109375 -11.09375 L 0.824219 -11.09375 C 0.808594 -11.09375 0.792969 -11.078125 0.792969 -11.0625 C 0.792969 -11.03125 0.808594 -11.015625 0.824219 -11.015625 C 1.378906 -11.015625 1.839844 -10.554688 1.839844 -10 L 1.839844 -1.046875 C 1.839844 -0.492188 1.378906 -0.03125 0.824219 -0.03125 Z M 0.824219 -0.03125 "/></g></g></g><g fill="#242424" fill-opacity="1"><g transform="translate(101.469751, 269.407873)"><g><path d="M 0.824219 -0.03125 C 0.808594 -0.03125 0.792969 -0.015625 0.792969 0 C 0.792969 0.03125 0.808594 0.046875 0.824219 0.046875 L 4.222656 0.046875 C 4.253906 0.046875 4.269531 0.03125 4.269531 0 C 4.269531 -0.015625 4.253906 -0.03125 4.222656 -0.03125 C 3.664062 -0.03125 3.207031 -0.492188 3.207031 -1.046875 L 3.207031 -5.476562 L 6.015625 -5.476562 C 6.808594 -5.476562 7.457031 -4.253906 7.457031 -2.761719 L 7.457031 -1.046875 C 7.457031 -0.445312 7.949219 0.046875 8.554688 0.046875 L 9.839844 0.046875 C 9.855469 0.046875 9.886719 0.03125 9.886719 0.015625 C 9.886719 -0.015625 9.855469 -0.03125 9.839844 -0.03125 C 9.285156 -0.03125 8.824219 -0.492188 8.824219 -1.046875 L 8.824219 -2.761719 C 8.824219 -4.140625 7.824219 -5.300781 6.507812 -5.523438 C 7.824219 -5.761719 8.824219 -6.902344 8.824219 -8.285156 C 8.824219 -9.839844 7.570312 -11.09375 6.015625 -11.09375 L 0.824219 -11.09375 C 0.808594 -11.09375 0.792969 -11.078125 0.792969 -11.0625 C 0.792969 -11.03125 0.808594 -11.015625 0.824219 -11.015625 C 1.378906 -11.015625 1.839844 -10.554688 1.839844 -10 L 1.839844 -1.046875 C 1.839844 -0.492188 1.378906 -0.03125 0.824219 -0.03125 Z M 6.015625 -11.015625 C 6.808594 -11.015625 7.457031 -9.792969 7.457031 -8.285156 C 7.457031 -6.792969 6.808594 -5.570312 6.015625 -5.570312 L 3.207031 -5.570312 L 3.207031 -10 C 3.207031 -10.457031 2.9375 -10.855469 2.539062 -11.015625 Z M 6.015625 -11.015625 "/></g></g></g><g fill="#242424" fill-opacity="1"><g transform="translate(101.469751, 290.567761)"><g><path d="M 7.679688 -11.0625 C 7.679688 -11.03125 7.695312 -11.015625 7.730469 -11.015625 C 7.984375 -11.015625 8.1875 -10.917969 8.332031 -10.742188 C 8.457031 -10.554688 8.492188 -10.300781 8.410156 -10.015625 L 6 -2.300781 L 3.601562 -10.015625 C 3.507812 -10.300781 3.539062 -10.554688 3.683594 -10.742188 C 3.808594 -10.917969 4.03125 -11.015625 4.285156 -11.015625 C 4.316406 -11.015625 4.332031 -11.03125 4.332031 -11.0625 C 4.332031 -11.078125 4.316406 -11.09375 4.285156 -11.09375 L 0.824219 -11.09375 C 0.808594 -11.09375 0.792969 -11.078125 0.792969 -11.0625 C 0.792969 -11.03125 0.808594 -11.015625 0.824219 -11.015625 C 1.398438 -11.015625 2 -10.554688 2.175781 -10 L 5.285156 0.015625 C 5.285156 0.03125 5.285156 0.03125 5.300781 0.03125 C 5.300781 0.03125 5.300781 0.03125 5.300781 0.046875 C 5.316406 0.046875 5.316406 0.046875 5.316406 0.046875 C 5.316406 0.046875 5.332031 0.046875 5.332031 0.046875 C 5.332031 0.046875 5.332031 0.046875 5.347656 0.046875 C 5.363281 0.03125 5.363281 0.03125 5.363281 0.03125 C 5.363281 0.03125 5.363281 0.03125 5.363281 0.015625 L 6.046875 -2.140625 L 8.507812 -10.015625 C 8.679688 -10.570312 9.285156 -11.015625 9.839844 -11.015625 C 9.855469 -11.015625 9.871094 -11.03125 9.871094 -11.0625 C 9.871094 -11.078125 9.855469 -11.09375 9.839844 -11.09375 L 7.730469 -11.09375 C 7.695312 -11.09375 7.679688 -11.078125 7.679688 -11.0625 Z M 7.679688 -11.0625 "/></g></g></g><g fill="#242424" fill-opacity="1"><g transform="translate(104.280049, 311.727649)"><g><path d="M 0.824219 -0.03125 C 0.808594 -0.03125 0.792969 -0.015625 0.792969 0 C 0.792969 0.03125 0.808594 0.046875 0.824219 0.046875 L 4.222656 0.046875 C 4.253906 0.046875 4.269531 0.03125 4.269531 0 C 4.269531 -0.015625 4.253906 -0.03125 4.222656 -0.03125 C 3.664062 -0.03125 3.207031 -0.492188 3.207031 -1.046875 L 3.207031 -10 C 3.207031 -10.554688 3.664062 -11.015625 4.222656 -11.015625 C 4.253906 -11.015625 4.269531 -11.03125 4.269531 -11.0625 C 4.269531 -11.078125 4.253906 -11.09375 4.222656 -11.09375 L 0.824219 -11.09375 C 0.808594 -11.09375 0.792969 -11.078125 0.792969 -11.0625 C 0.792969 -11.03125 0.808594 -11.015625 0.824219 -11.015625 C 1.378906 -11.015625 1.839844 -10.554688 1.839844 -10 L 1.839844 -1.046875 C 1.839844 -0.492188 1.378906 -0.03125 0.824219 -0.03125 Z M 0.824219 -0.03125 "/></g></g></g><g fill="#242424" fill-opacity="1"><g transform="translate(101.242447, 332.887537)"><g><path d="M 6.363281 0.046875 C 7.347656 0.046875 8.300781 -0.207031 9.125 -0.683594 C 9.234375 -0.730469 9.347656 -0.761719 9.457031 -0.761719 C 9.886719 -0.761719 10.234375 -0.414062 10.234375 0 C 10.234375 0.03125 10.253906 0.046875 10.269531 0.046875 C 10.300781 0.046875 10.316406 0.03125 10.316406 0 L 10.316406 -2.285156 C 10.316406 -2.300781 10.300781 -2.316406 10.269531 -2.316406 C 10.253906 -2.316406 10.234375 -2.300781 10.234375 -2.285156 L 10.234375 -1.632812 C 9.886719 -1.285156 9.507812 -1 9.09375 -0.761719 C 9.09375 -0.761719 9.09375 -0.761719 9.078125 -0.761719 C 9.0625 -0.746094 9.03125 -0.730469 9 -0.714844 C 8.203125 -0.269531 7.300781 -0.03125 6.363281 -0.03125 C 4.046875 -0.03125 2.160156 -2.492188 2.160156 -5.523438 C 2.160156 -8.554688 4.046875 -11.015625 6.363281 -11.015625 C 7.300781 -11.015625 8.203125 -10.777344 9 -10.347656 C 9 -10.347656 9 -10.332031 9 -10.332031 C 9.03125 -10.316406 9.0625 -10.300781 9.078125 -10.300781 C 9.09375 -10.285156 9.09375 -10.285156 9.09375 -10.285156 C 9.507812 -10.046875 9.886719 -9.761719 10.234375 -9.425781 L 10.234375 -8.777344 C 10.234375 -8.746094 10.253906 -8.726562 10.269531 -8.726562 C 10.300781 -8.726562 10.316406 -8.746094 10.316406 -8.777344 C 10.316406 -8.777344 10.316406 -11.0625 10.316406 -11.0625 C 10.316406 -11.078125 10.300781 -11.109375 10.269531 -11.109375 C 10.253906 -11.109375 10.234375 -11.078125 10.234375 -11.0625 C 10.234375 -10.632812 9.886719 -10.285156 9.457031 -10.285156 C 9.347656 -10.285156 9.234375 -10.316406 9.125 -10.363281 C 8.300781 -10.839844 7.347656 -11.09375 6.363281 -11.09375 C 4.871094 -11.09375 3.476562 -10.523438 2.414062 -9.472656 C 0.238281 -7.300781 0.238281 -3.761719 2.414062 -1.585938 C 3.476562 -0.523438 4.871094 0.046875 6.363281 0.046875 Z M 6.363281 0.046875 "/></g></g></g><g fill="#242424" fill-opacity="1"><g transform="translate(101.98635, 354.047426)"><g><path d="M 0.824219 -0.03125 C 0.808594 -0.03125 0.792969 -0.015625 0.792969 0 C 0.792969 0.03125 0.808594 0.046875 0.824219 0.046875 L 8.777344 0.046875 C 8.808594 0.046875 8.824219 0.03125 8.824219 0 L 8.824219 -2.316406 C 8.824219 -2.347656 8.808594 -2.363281 8.777344 -2.363281 C 8.761719 -2.363281 8.746094 -2.347656 8.746094 -2.316406 C 8.746094 -1.0625 7.710938 -0.03125 6.460938 -0.03125 L 3.207031 -0.03125 L 3.207031 -5.476562 L 5.332031 -5.476562 C 5.886719 -5.476562 6.347656 -5.03125 6.347656 -4.476562 C 6.347656 -4.445312 6.363281 -4.425781 6.394531 -4.425781 C 6.410156 -4.425781 6.425781 -4.445312 6.425781 -4.476562 L 6.425781 -6.585938 C 6.425781 -6.601562 6.410156 -6.617188 6.394531 -6.617188 C 6.363281 -6.617188 6.347656 -6.601562 6.347656 -6.585938 C 6.347656 -6.015625 5.886719 -5.570312 5.332031 -5.570312 L 3.207031 -5.570312 L 3.207031 -10 C 3.207031 -10.457031 2.9375 -10.855469 2.539062 -11.015625 L 6.460938 -11.015625 C 7.710938 -11.015625 8.746094 -9.980469 8.746094 -8.726562 C 8.746094 -8.710938 8.761719 -8.679688 8.777344 -8.679688 C 8.808594 -8.679688 8.824219 -8.710938 8.824219 -8.726562 C 8.824219 -8.726562 8.824219 -11.0625 8.824219 -11.0625 C 8.824219 -11.078125 8.808594 -11.109375 8.777344 -11.109375 L 2.109375 -11.109375 C 2.109375 -11.109375 2.109375 -11.09375 2.109375 -11.09375 L 0.824219 -11.09375 C 0.808594 -11.09375 0.792969 -11.078125 0.792969 -11.0625 C 0.792969 -11.03125 0.808594 -11.015625 0.824219 -11.015625 C 1.378906 -11.015625 1.839844 -10.554688 1.839844 -10 L 1.839844 -1.046875 C 1.839844 -0.492188 1.378906 -0.03125 0.824219 -0.03125 Z M 0.824219 -0.03125 "/></g></g></g></svg>